<svg width="140" height="41" viewBox="0 0 140 41" fill="none" xmlns="http://www.w3.org/2000/svg">
<path d="M22.0706 16.1524C22.0706 19.4214 20.1336 22.2399 17.3455 23.5187C18.5228 22.5489 19.2726 21.0777 19.2726 19.4313C19.2726 16.5391 16.9581 14.1871 14.0784 14.1285C14.0402 14.1258 14.0053 14.1258 13.9671 14.1258C13.9288 14.1258 13.8939 14.1258 13.8557 14.1285C12.7871 14.1864 11.9412 15.0706 11.9412 16.1517V26.2811C11.9412 29.6365 9.21891 32.3588 5.86353 32.3588V16.1524C5.86353 11.6776 9.49233 8.04883 13.9671 8.04883C18.4418 8.04883 22.0706 11.6776 22.0706 16.1524Z" fill="white"/>
<path d="M15.3994 17.5848C16.1906 16.7937 16.1906 15.511 15.3994 14.7198C14.6083 13.9287 13.3256 13.9287 12.5344 14.7198C11.7433 15.511 11.7433 16.7937 12.5344 17.5848C13.3256 18.376 14.6083 18.376 15.3994 17.5848Z" fill="white"/>
<path d="M40.4541 23.0241V20.1841H43.0741C43.5807 20.1841 44.0141 20.0841 44.3741 19.8841C44.7474 19.6841 45.0341 19.4041 45.2341 19.0441C45.4341 18.6708 45.5341 18.2441 45.5341 17.7641C45.5341 17.2574 45.4341 16.8241 45.2341 16.4641C45.0341 16.0908 44.7474 15.8108 44.3741 15.6241C44.0141 15.4241 43.5807 15.3241 43.0741 15.3241H40.4541V12.4841H42.9141C44.1541 12.4841 45.2141 12.6908 46.0941 13.1041C46.9874 13.5174 47.6674 14.1041 48.1341 14.8641C48.6141 15.6241 48.8541 16.5374 48.8541 17.6041V17.9241C48.8541 18.9641 48.6141 19.8708 48.1341 20.6441C47.6674 21.4041 46.9874 21.9908 46.0941 22.4041C45.2141 22.8174 44.1541 23.0241 42.9141 23.0241H40.4541ZM37.5741 27.2041V12.4841H40.8541V27.2041H37.5741ZM55.2172 27.5841C54.2839 27.5841 53.4572 27.4241 52.7372 27.1041C52.0305 26.7841 51.4372 26.3574 50.9572 25.8241C50.4905 25.2774 50.1305 24.6708 49.8772 24.0041C49.6372 23.3241 49.5172 22.6308 49.5172 21.9241V21.5241C49.5172 20.7908 49.6372 20.0908 49.8772 19.4241C50.1305 18.7441 50.4905 18.1374 50.9572 17.6041C51.4239 17.0708 52.0039 16.6508 52.6972 16.3441C53.4039 16.0241 54.2039 15.8641 55.0972 15.8641C56.2705 15.8641 57.2572 16.1308 58.0572 16.6641C58.8705 17.1841 59.4905 17.8708 59.9172 18.7241C60.3439 19.5641 60.5572 20.4841 60.5572 21.4841V22.5641H50.8572V20.7441H58.6172L57.5772 21.5841C57.5772 20.9308 57.4839 20.3708 57.2972 19.9041C57.1105 19.4374 56.8305 19.0841 56.4572 18.8441C56.0972 18.5908 55.6439 18.4641 55.0972 18.4641C54.5372 18.4641 54.0639 18.5908 53.6772 18.8441C53.2905 19.0974 52.9972 19.4708 52.7972 19.9641C52.5972 20.4441 52.4972 21.0374 52.4972 21.7441C52.4972 22.3974 52.5905 22.9708 52.7772 23.4641C52.9639 23.9441 53.2572 24.3174 53.6572 24.5841C54.0572 24.8508 54.5772 24.9841 55.2172 24.9841C55.8039 24.9841 56.2839 24.8708 56.6572 24.6441C57.0305 24.4174 57.2839 24.1374 57.4172 23.8041H60.3572C60.1972 24.5374 59.8839 25.1908 59.4172 25.7641C58.9505 26.3374 58.3639 26.7841 57.6572 27.1041C56.9505 27.4241 56.1372 27.5841 55.2172 27.5841ZM62.2777 27.2041V16.2441H64.8177V20.9441H64.7577C64.7577 19.3974 65.0843 18.2041 65.7377 17.3641C66.4043 16.5241 67.3643 16.1041 68.6177 16.1041H69.0377V18.8641H68.2377C67.3577 18.8641 66.6777 19.1041 66.1977 19.5841C65.7177 20.0508 65.4777 20.7308 65.4777 21.6241V27.2041H62.2777ZM74.4556 27.5441C72.8956 27.5441 71.6756 27.2241 70.7956 26.5841C69.9156 25.9441 69.449 25.0441 69.3956 23.8841H72.2356C72.289 24.2308 72.4956 24.5441 72.8556 24.8241C73.229 25.0908 73.7823 25.2241 74.5156 25.2241C75.0756 25.2241 75.5356 25.1308 75.8956 24.9441C76.269 24.7441 76.4556 24.4641 76.4556 24.1041C76.4556 23.7841 76.3156 23.5308 76.0356 23.3441C75.7556 23.1441 75.2556 23.0041 74.5356 22.9241L73.6756 22.8441C72.3556 22.7108 71.3623 22.3441 70.6956 21.7441C70.0423 21.1441 69.7156 20.3774 69.7156 19.4441C69.7156 18.6708 69.909 18.0241 70.2956 17.5041C70.6823 16.9841 71.2156 16.5908 71.8956 16.3241C72.589 16.0574 73.3756 15.9241 74.2556 15.9241C75.669 15.9241 76.809 16.2374 77.6756 16.8641C78.5423 17.4774 78.9956 18.3708 79.0356 19.5441H76.1956C76.1423 19.1841 75.9556 18.8841 75.6356 18.6441C75.3156 18.3908 74.8423 18.2641 74.2156 18.2641C73.7223 18.2641 73.329 18.3574 73.0356 18.5441C72.7423 18.7308 72.5956 18.9841 72.5956 19.3041C72.5956 19.6108 72.7223 19.8441 72.9756 20.0041C73.229 20.1641 73.6423 20.2774 74.2156 20.3441L75.0756 20.4241C76.4223 20.5708 77.469 20.9441 78.2156 21.5441C78.9623 22.1441 79.3356 22.9508 79.3356 23.9641C79.3356 24.6974 79.1356 25.3374 78.7356 25.8841C78.3356 26.4174 77.769 26.8308 77.0356 27.1241C76.3023 27.4041 75.4423 27.5441 74.4556 27.5441ZM86.3489 27.5841C85.3889 27.5841 84.5356 27.4374 83.7889 27.1441C83.0423 26.8374 82.4089 26.4241 81.8889 25.9041C81.3823 25.3841 80.9956 24.7908 80.7289 24.1241C80.4623 23.4441 80.3289 22.7308 80.3289 21.9841V21.5241C80.3289 20.7641 80.4623 20.0441 80.7289 19.3641C81.0089 18.6708 81.4089 18.0641 81.9289 17.5441C82.4623 17.0241 83.1023 16.6174 83.8489 16.3241C84.5956 16.0174 85.4289 15.8641 86.3489 15.8641C87.2956 15.8641 88.1356 16.0174 88.8689 16.3241C89.6156 16.6174 90.2489 17.0241 90.7689 17.5441C91.2889 18.0641 91.6889 18.6708 91.9689 19.3641C92.2489 20.0441 92.3889 20.7641 92.3889 21.5241V21.9841C92.3889 22.7308 92.2556 23.4441 91.9889 24.1241C91.7223 24.7908 91.3289 25.3841 90.8089 25.9041C90.3023 26.4241 89.6756 26.8374 88.9289 27.1441C88.1823 27.4374 87.3223 27.5841 86.3489 27.5841ZM86.3489 24.8841C86.9756 24.8841 87.4956 24.7508 87.9089 24.4841C88.3223 24.2174 88.6356 23.8441 88.8489 23.3641C89.0756 22.8841 89.1889 22.3508 89.1889 21.7641C89.1889 21.1374 89.0756 20.5908 88.8489 20.1241C88.6223 19.6441 88.2956 19.2641 87.8689 18.9841C87.4556 18.7041 86.9489 18.5641 86.3489 18.5641C85.7623 18.5641 85.2556 18.7041 84.8289 18.9841C84.4023 19.2641 84.0756 19.6441 83.8489 20.1241C83.6356 20.5908 83.5289 21.1374 83.5289 21.7641C83.5289 22.3508 83.6356 22.8841 83.8489 23.3641C84.0623 23.8441 84.3823 24.2174 84.8089 24.4841C85.2356 24.7508 85.7489 24.8841 86.3489 24.8841ZM94.2222 27.2041V16.2441H96.7622V20.9441H96.5822C96.5822 19.8241 96.7222 18.8908 97.0022 18.1441C97.2955 17.3974 97.7355 16.8374 98.3222 16.4641C98.9089 16.0908 99.6222 15.9041 100.462 15.9041H100.602C101.882 15.9041 102.856 16.3241 103.522 17.1641C104.202 17.9908 104.542 19.2508 104.542 20.9441V27.2041H101.342V20.7641C101.342 20.1774 101.169 19.6974 100.822 19.3241C100.476 18.9508 100.009 18.7641 99.4222 18.7641C98.8222 18.7641 98.3355 18.9574 97.9622 19.3441C97.6022 19.7174 97.4222 20.2108 97.4222 20.8241V27.2041H94.2222ZM113.489 27.2041V23.9641H112.949V20.4441C112.949 19.8841 112.816 19.4641 112.549 19.1841C112.282 18.9041 111.856 18.7641 111.269 18.7641C110.976 18.7641 110.589 18.7708 110.109 18.7841C109.629 18.7974 109.136 18.8174 108.629 18.8441C108.122 18.8708 107.662 18.8974 107.249 18.9241V16.2241C107.556 16.1974 107.916 16.1708 108.329 16.1441C108.742 16.1174 109.169 16.0974 109.609 16.0841C110.049 16.0708 110.462 16.0641 110.849 16.0641C111.969 16.0641 112.909 16.2241 113.669 16.5441C114.442 16.8641 115.029 17.3508 115.429 18.0041C115.829 18.6441 116.029 19.4708 116.029 20.4841V27.2041H113.489ZM109.989 27.4841C109.202 27.4841 108.509 27.3441 107.909 27.0641C107.322 26.7841 106.862 26.3841 106.529 25.8641C106.196 25.3308 106.029 24.6974 106.029 23.9641C106.029 23.1641 106.236 22.5108 106.649 22.0041C107.062 21.4841 107.642 21.1041 108.389 20.8641C109.136 20.6108 109.996 20.4841 110.969 20.4841H113.309V22.2641H110.949C110.389 22.2641 109.956 22.4041 109.649 22.6841C109.356 22.9508 109.209 23.3174 109.209 23.7841C109.209 24.2241 109.356 24.5841 109.649 24.8641C109.956 25.1308 110.389 25.2641 110.949 25.2641C111.309 25.2641 111.629 25.2041 111.909 25.0841C112.202 24.9508 112.442 24.7308 112.629 24.4241C112.816 24.1174 112.922 23.6908 112.949 23.1441L113.709 23.9441C113.642 24.7041 113.456 25.3441 113.149 25.8641C112.856 26.3841 112.442 26.7841 111.909 27.0641C111.389 27.3441 110.749 27.4841 109.989 27.4841ZM118.484 27.2041V12.6041H121.704V27.2041H118.484ZM117.184 14.9641V12.6041H121.704V14.9641H117.184Z" fill="white"/>
</svg>
